<?xml version="1.0" standalone="no"?>
 <!DOCTYPE svg PUBLIC "-//W3C//DTD SVG 1.1//EN" 
 "http://www.w3.org/Graphics/SVG/1.1/DTD/svg11.dtd"> 
<svg xmlns="http://www.w3.org/2000/svg" version="1.1" 
    width="2.16916cm" height="2.28854cm" viewBox="0 0 8540 9010 ">
<title>SVG Picture created as cc2500-breakout-F.Cu.svg date 2018/05/02 08:31:53 </title>
  <desc>Picture generated by PCBNEW </desc>
<g style="fill:#000000; fill-opacity:1;stroke:#000000; stroke-opacity:1;
stroke-linecap:round; stroke-linejoin:round; "
 transform="translate(0 0) scale(1 1)">
</g>
<g style="fill:#C2C200; fill-opacity:0.0; 
stroke:#C2C200; stroke-width:-0.000393701; stroke-opacity:1; 
stroke-linecap:round; stroke-linejoin:round;">
</g>
<g style="fill:#C2C200; fill-opacity:0.0; 
stroke:#C2C200; stroke-width:59.0551; stroke-opacity:1; 
stroke-linecap:round; stroke-linejoin:round;">
<path d="M6640 29
L6640 4316
" />
<path d="M1916 29
L1916 4316
" />
<path d="M1916 4316
L278 5954
" />
<path d="M6640 4316
L8278 5954
" />
<path d="M1916 29
L6640 29
" />
<path d="M8278 8029
L8278 5954
" />
<path d="M278 8029
L8278 8029
" />
<path d="M278 8029
L278 5954
" />
</g>
<g style="fill:#840000; fill-opacity:0.0; 
stroke:#840000; stroke-width:59.0551; stroke-opacity:1; 
stroke-linecap:round; stroke-linejoin:round;">
</g>
<g style="fill:#840000; fill-opacity:0.0; 
stroke:#840000; stroke-width:0; stroke-opacity:1; 
stroke-linecap:round; stroke-linejoin:round;">
</g>
<g style="fill:#840000; fill-opacity:1.0; 
stroke:#840000; stroke-width:0; stroke-opacity:1; 
stroke-linecap:round; stroke-linejoin:round;">
<polyline style="fill-rule:evenodd;"
points="1970,5364
1970,4576
2246,4576
2246,5364
1970,5364
" /> 
<polyline style="fill-rule:evenodd;"
points="2443,5364
2443,4576
2718,4576
2718,5364
2443,5364
" /> 
<polyline style="fill-rule:evenodd;"
points="2915,5364
2915,4576
3191,4576
3191,5364
2915,5364
" /> 
<polyline style="fill-rule:evenodd;"
points="3387,5364
3387,4576
3663,4576
3663,5364
3387,5364
" /> 
<polyline style="fill-rule:evenodd;"
points="3860,5364
3860,4576
4135,4576
4135,5364
3860,5364
" /> 
<polyline style="fill-rule:evenodd;"
points="4332,5364
4332,4576
4608,4576
4608,5364
4332,5364
" /> 
<polyline style="fill-rule:evenodd;"
points="4805,5364
4805,4576
5080,4576
5080,5364
4805,5364
" /> 
<polyline style="fill-rule:evenodd;"
points="5277,5364
5277,4576
5553,4576
5553,5364
5277,5364
" /> 
<polyline style="fill-rule:evenodd;"
points="1113,7864
443,7864
443,7194
1113,7194
1113,7864
" /> 
</g>
<g style="fill:#840000; fill-opacity:1.0; 
stroke:#840000; stroke-width:669.291; stroke-opacity:1; 
stroke-linecap:round; stroke-linejoin:round;">
</g>
<g style="fill:#840000; fill-opacity:0.0; 
stroke:#840000; stroke-width:669.291; stroke-opacity:1; 
stroke-linecap:round; stroke-linejoin:round;">
<path d="M1778 7529
L1778 7529
" />
<path d="M2778 7529
L2778 7529
" />
<path d="M3778 7529
L3778 7529
" />
<path d="M4778 7529
L4778 7529
" />
<path d="M5778 7529
L5778 7529
" />
<path d="M6778 7529
L6778 7529
" />
<path d="M7778 7529
L7778 7529
" />
</g>
<g style="fill:#840000; fill-opacity:0.0; 
stroke:#840000; stroke-width:98.4252; stroke-opacity:1; 
stroke-linecap:round; stroke-linejoin:round;">
<path d="M2108 4970
L2108 6199
" />
<path d="M2108 6199
L778 7529
" />
<path d="M2580 4970
L2580 6727
" />
<path d="M2580 6727
L1778 7529
" />
<path d="M3053 4970
L3053 7254
" />
<path d="M3053 7254
L2778 7529
" />
<path d="M3525 4970
L3525 7276
" />
<path d="M3525 7276
L3778 7529
" />
<path d="M3998 4970
L3998 6749
" />
<path d="M3998 6749
L4778 7529
" />
<path d="M4470 4970
L4470 6221
" />
<path d="M4470 6221
L5778 7529
" />
<path d="M4943 4970
L4943 5694
" />
<path d="M4943 5694
L6778 7529
" />
<path d="M5415 4970
L5415 5166
" />
<path d="M5415 5166
L7778 7529
" />
</g>
<g style="fill:#FFFFFF; fill-opacity:0.0; 
stroke:#FFFFFF; stroke-width:98.4252; stroke-opacity:1; 
stroke-linecap:round; stroke-linejoin:round;">
</g>
<g style="fill:#FFFFFF; fill-opacity:1.0; 
stroke:#FFFFFF; stroke-width:0; stroke-opacity:1; 
stroke-linecap:round; stroke-linejoin:round;">
<circle cx="778.504" cy="7529.53" r="196.85" /> 
</g>
<g style="fill:#FFFFFF; fill-opacity:1.0; 
stroke:#FFFFFF; stroke-width:39.3701; stroke-opacity:1; 
stroke-linecap:round; stroke-linejoin:round;">
</g>
<g style="fill:#FFFFFF; fill-opacity:1.0; 
stroke:#FFFFFF; stroke-width:0; stroke-opacity:1; 
stroke-linecap:round; stroke-linejoin:round;">
<circle cx="1778.5" cy="7529.53" r="196.85" /> 
</g>
<g style="fill:#FFFFFF; fill-opacity:1.0; 
stroke:#FFFFFF; stroke-width:39.3701; stroke-opacity:1; 
stroke-linecap:round; stroke-linejoin:round;">
</g>
<g style="fill:#FFFFFF; fill-opacity:1.0; 
stroke:#FFFFFF; stroke-width:0; stroke-opacity:1; 
stroke-linecap:round; stroke-linejoin:round;">
<circle cx="2778.5" cy="7529.53" r="196.85" /> 
</g>
<g style="fill:#FFFFFF; fill-opacity:1.0; 
stroke:#FFFFFF; stroke-width:39.3701; stroke-opacity:1; 
stroke-linecap:round; stroke-linejoin:round;">
</g>
<g style="fill:#FFFFFF; fill-opacity:1.0; 
stroke:#FFFFFF; stroke-width:0; stroke-opacity:1; 
stroke-linecap:round; stroke-linejoin:round;">
<circle cx="3778.5" cy="7529.53" r="196.85" /> 
</g>
<g style="fill:#FFFFFF; fill-opacity:1.0; 
stroke:#FFFFFF; stroke-width:39.3701; stroke-opacity:1; 
stroke-linecap:round; stroke-linejoin:round;">
</g>
<g style="fill:#FFFFFF; fill-opacity:1.0; 
stroke:#FFFFFF; stroke-width:0; stroke-opacity:1; 
stroke-linecap:round; stroke-linejoin:round;">
<circle cx="4778.5" cy="7529.53" r="196.85" /> 
</g>
<g style="fill:#FFFFFF; fill-opacity:1.0; 
stroke:#FFFFFF; stroke-width:39.3701; stroke-opacity:1; 
stroke-linecap:round; stroke-linejoin:round;">
</g>
<g style="fill:#FFFFFF; fill-opacity:1.0; 
stroke:#FFFFFF; stroke-width:0; stroke-opacity:1; 
stroke-linecap:round; stroke-linejoin:round;">
<circle cx="5778.5" cy="7529.53" r="196.85" /> 
</g>
<g style="fill:#FFFFFF; fill-opacity:1.0; 
stroke:#FFFFFF; stroke-width:39.3701; stroke-opacity:1; 
stroke-linecap:round; stroke-linejoin:round;">
</g>
<g style="fill:#FFFFFF; fill-opacity:1.0; 
stroke:#FFFFFF; stroke-width:0; stroke-opacity:1; 
stroke-linecap:round; stroke-linejoin:round;">
<circle cx="6778.5" cy="7529.53" r="196.85" /> 
</g>
<g style="fill:#FFFFFF; fill-opacity:1.0; 
stroke:#FFFFFF; stroke-width:39.3701; stroke-opacity:1; 
stroke-linecap:round; stroke-linejoin:round;">
</g>
<g style="fill:#FFFFFF; fill-opacity:1.0; 
stroke:#FFFFFF; stroke-width:0; stroke-opacity:1; 
stroke-linecap:round; stroke-linejoin:round;">
<circle cx="7778.5" cy="7529.53" r="196.85" /> 
</g>
<g style="fill:#FFFFFF; fill-opacity:1.0; 
stroke:#FFFFFF; stroke-width:39.3701; stroke-opacity:1; 
stroke-linecap:round; stroke-linejoin:round;">
</g>
<g style="fill:#000000; fill-opacity:1.0; 
stroke:#000000; stroke-width:39.3701; stroke-opacity:1; 
stroke-linecap:round; stroke-linejoin:round;">
</g> 
</svg>
