<?xml version="1.0" standalone="no"?>
 <!DOCTYPE svg PUBLIC "-//W3C//DTD SVG 1.1//EN" 
 "http://www.w3.org/Graphics/SVG/1.1/DTD/svg11.dtd"> 
<svg xmlns="http://www.w3.org/2000/svg" version="1.1" 
    width="2.16916cm" height="2.28854cm" viewBox="0 0 8540 9010 ">
<title>SVG Picture created as cc2500-breakout-F.SilkS.svg date 2018/05/02 08:31:53 </title>
  <desc>Picture generated by PCBNEW </desc>
<g style="fill:#000000; fill-opacity:1;stroke:#000000; stroke-opacity:1;
stroke-linecap:round; stroke-linejoin:round; "
 transform="translate(0 0) scale(1 1)">
</g>
<g style="fill:#C2C200; fill-opacity:0.0; 
stroke:#C2C200; stroke-width:-0.000393701; stroke-opacity:1; 
stroke-linecap:round; stroke-linejoin:round;">
</g>
<g style="fill:#C2C200; fill-opacity:0.0; 
stroke:#C2C200; stroke-width:59.0551; stroke-opacity:1; 
stroke-linecap:round; stroke-linejoin:round;">
<path d="M6640 29
L6640 4316
" />
<path d="M1916 29
L1916 4316
" />
<path d="M1916 4316
L278 5954
" />
<path d="M6640 4316
L8278 5954
" />
<path d="M1916 29
L6640 29
" />
<path d="M8278 8029
L8278 5954
" />
<path d="M278 8029
L8278 8029
" />
<path d="M278 8029
L278 5954
" />
</g>
<g style="fill:#008484; fill-opacity:0.0; 
stroke:#008484; stroke-width:59.0551; stroke-opacity:1; 
stroke-linecap:round; stroke-linejoin:round;">
</g>
<g style="fill:#008484; fill-opacity:0.0; 
stroke:#008484; stroke-width:98.4252; stroke-opacity:1; 
stroke-linecap:round; stroke-linejoin:round;">
<path d="M7919 6620
L7937 6639
L7956 6695
L7956 6732
L7937 6788
L7900 6826
L7862 6845
L7787 6863
L7731 6863
L7656 6845
L7619 6826
L7581 6788
L7562 6732
L7562 6695
L7581 6639
L7600 6620
" />
<path d="M7937 6470
L7956 6414
L7956 6320
L7937 6282
L7919 6264
L7881 6245
L7844 6245
L7806 6264
L7787 6282
L7769 6320
L7750 6395
L7731 6432
L7712 6451
L7675 6470
L7637 6470
L7600 6451
L7581 6432
L7562 6395
L7562 6301
L7581 6245
" />
<path d="M6937 6863
L6956 6807
L6956 6714
L6937 6676
L6919 6657
L6881 6639
L6844 6639
L6806 6657
L6787 6676
L6769 6714
L6750 6788
L6731 6826
L6712 6845
L6675 6863
L6637 6863
L6600 6845
L6581 6826
L6562 6788
L6562 6695
L6581 6639
" />
<path d="M6956 6470
L6562 6470
L6562 6376
L6581 6320
L6619 6282
L6656 6264
L6731 6245
L6787 6245
L6862 6264
L6900 6282
L6937 6320
L6956 6376
L6956 6470
" />
<path d="M6562 6001
L6562 5926
L6581 5889
L6619 5851
L6694 5832
L6825 5832
L6900 5851
L6937 5889
L6956 5926
L6956 6001
L6937 6039
L6900 6076
L6825 6095
L6694 6095
L6619 6076
L6581 6039
L6562 6001
" />
<path d="M6562 5589
L6562 5551
L6581 5514
L6600 5495
L6637 5476
L6712 5457
L6806 5457
L6881 5476
L6919 5495
L6937 5514
L6956 5551
L6956 5589
L6937 5626
L6919 5645
L6881 5664
L6806 5682
L6712 5682
L6637 5664
L6600 5645
L6581 5626
L6562 5589
" />
<path d="M5937 6863
L5956 6807
L5956 6714
L5937 6676
L5919 6657
L5881 6639
L5844 6639
L5806 6657
L5787 6676
L5769 6714
L5750 6788
L5731 6826
L5712 6845
L5675 6863
L5637 6863
L5600 6845
L5581 6826
L5562 6788
L5562 6695
L5581 6639
" />
<path d="M5956 6470
L5562 6470
L5562 6376
L5581 6320
L5619 6282
L5656 6264
L5731 6245
L5787 6245
L5862 6264
L5900 6282
L5937 6320
L5956 6376
L5956 6470
" />
<path d="M5562 6001
L5562 5926
L5581 5889
L5619 5851
L5694 5832
L5825 5832
L5900 5851
L5937 5889
L5956 5926
L5956 6001
L5937 6039
L5900 6076
L5825 6095
L5694 6095
L5619 6076
L5581 6039
L5562 6001
" />
<path d="M5600 5682
L5581 5664
L5562 5626
L5562 5532
L5581 5495
L5600 5476
L5637 5457
L5675 5457
L5731 5476
L5956 5701
L5956 5457
" />
<path d="M4956 6845
L4562 6845
L4844 6714
L4562 6582
L4956 6582
" />
<path d="M4956 6395
L4562 6395
" />
<path d="M4937 6226
L4956 6170
L4956 6076
L4937 6039
L4919 6020
L4881 6001
L4844 6001
L4806 6020
L4787 6039
L4769 6076
L4750 6151
L4731 6189
L4712 6207
L4675 6226
L4637 6226
L4600 6207
L4581 6189
L4562 6151
L4562 6057
L4581 6001
" />
<path d="M4562 5757
L4562 5682
L4581 5645
L4619 5607
L4694 5589
L4825 5589
L4900 5607
L4937 5645
L4956 5682
L4956 5757
L4937 5795
L4900 5832
L4825 5851
L4694 5851
L4619 5832
L4581 5795
L4562 5757
" />
<path d="M3937 6863
L3956 6807
L3956 6714
L3937 6676
L3919 6657
L3881 6639
L3844 6639
L3806 6657
L3787 6676
L3769 6714
L3750 6788
L3731 6826
L3712 6845
L3675 6863
L3637 6863
L3600 6845
L3581 6826
L3562 6788
L3562 6695
L3581 6639
" />
<path d="M3919 6245
L3937 6264
L3956 6320
L3956 6357
L3937 6414
L3900 6451
L3862 6470
L3787 6489
L3731 6489
L3656 6470
L3619 6451
L3581 6414
L3562 6357
L3562 6320
L3581 6264
L3600 6245
" />
<path d="M3956 5889
L3956 6076
L3562 6076
" />
<path d="M2956 6845
L2562 6845
L2844 6714
L2562 6582
L2956 6582
" />
<path d="M2562 6320
L2562 6245
L2581 6207
L2619 6170
L2694 6151
L2825 6151
L2900 6170
L2937 6207
L2956 6245
L2956 6320
L2937 6357
L2900 6395
L2825 6414
L2694 6414
L2619 6395
L2581 6357
L2562 6320
" />
<path d="M2937 6001
L2956 5945
L2956 5851
L2937 5814
L2919 5795
L2881 5776
L2844 5776
L2806 5795
L2787 5814
L2769 5851
L2750 5926
L2731 5964
L2712 5982
L2675 6001
L2637 6001
L2600 5982
L2581 5964
L2562 5926
L2562 5832
L2581 5776
" />
<path d="M2956 5607
L2562 5607
" />
<path d="M1562 6882
L1562 6639
L1712 6770
L1712 6714
L1731 6676
L1750 6657
L1787 6639
L1881 6639
L1919 6657
L1937 6676
L1956 6714
L1956 6826
L1937 6863
L1919 6882
" />
<path d="M1562 6526
L1956 6395
L1562 6264
" />
<path d="M1562 6170
L1562 5926
L1712 6057
L1712 6001
L1731 5964
L1750 5945
L1787 5926
L1881 5926
L1919 5945
L1937 5964
L1956 6001
L1956 6114
L1937 6151
L1919 6170
" />
<path d="M581 6639
L562 6676
L562 6732
L581 6788
L619 6826
L656 6845
L731 6863
L787 6863
L862 6845
L900 6826
L937 6788
L956 6732
L956 6695
L937 6639
L919 6620
L787 6620
L787 6695
" />
<path d="M956 6451
L562 6451
L956 6226
L562 6226
" />
<path d="M956 6039
L562 6039
L562 5945
L581 5889
L619 5851
L656 5832
L731 5814
L787 5814
L862 5832
L900 5851
L937 5889
L956 5945
L956 6039
" />
</g> 
</svg>
