<?xml version="1.0" standalone="no"?>
 <!DOCTYPE svg PUBLIC "-//W3C//DTD SVG 1.1//EN" 
 "http://www.w3.org/Graphics/SVG/1.1/DTD/svg11.dtd"> 
<svg xmlns="http://www.w3.org/2000/svg" version="1.1" 
    width="2.16916cm" height="2.28854cm" viewBox="0 0 8540 9010 ">
<title>SVG Picture created as cc2500-breakout-B.SilkS.svg date 2018/05/02 08:31:53 </title>
  <desc>Picture generated by PCBNEW </desc>
<g style="fill:#000000; fill-opacity:1;stroke:#000000; stroke-opacity:1;
stroke-linecap:round; stroke-linejoin:round; "
 transform="translate(0 0) scale(1 1)">
</g>
<g style="fill:#840084; fill-opacity:0.0; 
stroke:#840084; stroke-width:-0.000393701; stroke-opacity:1; 
stroke-linecap:round; stroke-linejoin:round;">
</g>
<g style="fill:#840084; fill-opacity:0.0; 
stroke:#840084; stroke-width:98.4252; stroke-opacity:1; 
stroke-linecap:round; stroke-linejoin:round;">
<path d="M4840 3508
L4747 3770
L4653 3508
" />
<path d="M4297 3770
L4522 3770
" />
<path d="M4409 3770
L4409 3376
L4447 3433
L4484 3470
L4522 3489
" />
<path d="M4128 3733
L4109 3751
L4128 3770
L4147 3751
L4128 3733
L4128 3770
" />
<path d="M3866 3376
L3828 3376
L3791 3395
L3772 3414
L3753 3451
L3734 3526
L3734 3620
L3753 3695
L3772 3733
L3791 3751
L3828 3770
L3866 3770
L3903 3751
L3922 3733
L3941 3695
L3959 3620
L3959 3526
L3941 3451
L3922 3414
L3903 3395
L3866 3376
" />
</g>
<g style="fill:#840084; fill-opacity:0.0; 
stroke:#840084; stroke-width:118.11; stroke-opacity:1; 
stroke-linecap:round; stroke-linejoin:round;">
<path d="M5515 1726
L5543 1754
L5628 1782
L5684 1782
L5768 1754
L5825 1698
L5853 1642
L5881 1529
L5881 1445
L5853 1332
L5825 1276
L5768 1220
L5684 1192
L5628 1192
L5543 1220
L5515 1248
" />
<path d="M4925 1726
L4953 1754
L5037 1782
L5094 1782
L5178 1754
L5234 1698
L5262 1642
L5290 1529
L5290 1445
L5262 1332
L5234 1276
L5178 1220
L5094 1192
L5037 1192
L4953 1220
L4925 1248
" />
<path d="M4700 1248
L4672 1220
L4615 1192
L4475 1192
L4419 1220
L4390 1248
L4362 1304
L4362 1361
L4390 1445
L4728 1782
L4362 1782
" />
<path d="M3828 1192
L4109 1192
L4137 1473
L4109 1445
L4053 1417
L3912 1417
L3856 1445
L3828 1473
L3800 1529
L3800 1670
L3828 1726
L3856 1754
L3912 1782
L4053 1782
L4109 1754
L4137 1726
" />
<path d="M3434 1192
L3378 1192
L3322 1220
L3294 1248
L3266 1304
L3238 1417
L3238 1557
L3266 1670
L3294 1726
L3322 1754
L3378 1782
L3434 1782
L3491 1754
L3519 1726
L3547 1670
L3575 1557
L3575 1417
L3547 1304
L3519 1248
L3491 1220
L3434 1192
" />
<path d="M2872 1192
L2816 1192
L2759 1220
L2731 1248
L2703 1304
L2675 1417
L2675 1557
L2703 1670
L2731 1726
L2759 1754
L2816 1782
L2872 1782
L2928 1754
L2956 1726
L2984 1670
L3013 1557
L3013 1417
L2984 1304
L2956 1248
L2928 1220
L2872 1192
" />
<path d="M5881 2477
L5797 2505
L5768 2533
L5740 2589
L5740 2674
L5768 2730
L5797 2758
L5853 2786
L6078 2786
L6078 2196
L5881 2196
L5825 2224
L5797 2252
L5768 2308
L5768 2365
L5797 2421
L5825 2449
L5881 2477
L6078 2477
" />
<path d="M5487 2786
L5487 2393
" />
<path d="M5487 2505
L5459 2449
L5431 2421
L5375 2393
L5318 2393
" />
<path d="M4897 2758
L4953 2786
L5065 2786
L5122 2758
L5150 2702
L5150 2477
L5122 2421
L5065 2393
L4953 2393
L4897 2421
L4869 2477
L4869 2533
L5150 2589
" />
<path d="M4362 2786
L4362 2477
L4390 2421
L4447 2393
L4559 2393
L4615 2421
" />
<path d="M4362 2758
L4419 2786
L4559 2786
L4615 2758
L4644 2702
L4644 2646
L4615 2589
L4559 2561
L4419 2561
L4362 2533
" />
<path d="M4081 2786
L4081 2196
" />
<path d="M4025 2561
L3856 2786
" />
<path d="M3856 2393
L4081 2618
" />
<path d="M3519 2786
L3575 2758
L3603 2730
L3631 2674
L3631 2505
L3603 2449
L3575 2421
L3519 2393
L3434 2393
L3378 2421
L3350 2449
L3322 2505
L3322 2674
L3350 2730
L3378 2758
L3434 2786
L3519 2786
" />
<path d="M2816 2393
L2816 2786
" />
<path d="M3069 2393
L3069 2702
L3041 2758
L2984 2786
L2900 2786
L2844 2758
L2816 2730
" />
<path d="M2619 2393
L2394 2393
" />
<path d="M2534 2196
L2534 2702
L2506 2758
L2450 2786
L2394 2786
" />
</g>
<g style="fill:#840084; fill-opacity:0.0; 
stroke:#840084; stroke-width:98.4252; stroke-opacity:1; 
stroke-linecap:round; stroke-linejoin:round;">
<path d="M7919 6489
L7937 6470
L7956 6414
L7956 6376
L7937 6320
L7900 6282
L7862 6264
L7787 6245
L7731 6245
L7656 6264
L7619 6282
L7581 6320
L7562 6376
L7562 6414
L7581 6470
L7600 6489
" />
<path d="M7937 6639
L7956 6695
L7956 6788
L7937 6826
L7919 6845
L7881 6863
L7844 6863
L7806 6845
L7787 6826
L7769 6788
L7750 6714
L7731 6676
L7712 6657
L7675 6639
L7637 6639
L7600 6657
L7581 6676
L7562 6714
L7562 6807
L7581 6863
" />
<path d="M6937 5457
L6956 5514
L6956 5607
L6937 5645
L6919 5664
L6881 5682
L6844 5682
L6806 5664
L6787 5645
L6769 5607
L6750 5532
L6731 5495
L6712 5476
L6675 5457
L6637 5457
L6600 5476
L6581 5495
L6562 5532
L6562 5626
L6581 5682
" />
<path d="M6956 5851
L6562 5851
L6562 5945
L6581 6001
L6619 6039
L6656 6057
L6731 6076
L6787 6076
L6862 6057
L6900 6039
L6937 6001
L6956 5945
L6956 5851
" />
<path d="M6562 6320
L6562 6395
L6581 6432
L6619 6470
L6694 6489
L6825 6489
L6900 6470
L6937 6432
L6956 6395
L6956 6320
L6937 6282
L6900 6245
L6825 6226
L6694 6226
L6619 6245
L6581 6282
L6562 6320
" />
<path d="M6562 6732
L6562 6770
L6581 6807
L6600 6826
L6637 6845
L6712 6863
L6806 6863
L6881 6845
L6919 6826
L6937 6807
L6956 6770
L6956 6732
L6937 6695
L6919 6676
L6881 6657
L6806 6639
L6712 6639
L6637 6657
L6600 6676
L6581 6695
L6562 6732
" />
<path d="M5937 5457
L5956 5514
L5956 5607
L5937 5645
L5919 5664
L5881 5682
L5844 5682
L5806 5664
L5787 5645
L5769 5607
L5750 5532
L5731 5495
L5712 5476
L5675 5457
L5637 5457
L5600 5476
L5581 5495
L5562 5532
L5562 5626
L5581 5682
" />
<path d="M5956 5851
L5562 5851
L5562 5945
L5581 6001
L5619 6039
L5656 6057
L5731 6076
L5787 6076
L5862 6057
L5900 6039
L5937 6001
L5956 5945
L5956 5851
" />
<path d="M5562 6320
L5562 6395
L5581 6432
L5619 6470
L5694 6489
L5825 6489
L5900 6470
L5937 6432
L5956 6395
L5956 6320
L5937 6282
L5900 6245
L5825 6226
L5694 6226
L5619 6245
L5581 6282
L5562 6320
" />
<path d="M5600 6639
L5581 6657
L5562 6695
L5562 6788
L5581 6826
L5600 6845
L5637 6863
L5675 6863
L5731 6845
L5956 6620
L5956 6863
" />
<path d="M4956 5607
L4562 5607
L4844 5739
L4562 5870
L4956 5870
" />
<path d="M4956 6057
L4562 6057
" />
<path d="M4937 6226
L4956 6282
L4956 6376
L4937 6414
L4919 6432
L4881 6451
L4844 6451
L4806 6432
L4787 6414
L4769 6376
L4750 6301
L4731 6264
L4712 6245
L4675 6226
L4637 6226
L4600 6245
L4581 6264
L4562 6301
L4562 6395
L4581 6451
" />
<path d="M4562 6695
L4562 6770
L4581 6807
L4619 6845
L4694 6863
L4825 6863
L4900 6845
L4937 6807
L4956 6770
L4956 6695
L4937 6657
L4900 6620
L4825 6601
L4694 6601
L4619 6620
L4581 6657
L4562 6695
" />
<path d="M3937 5926
L3956 5982
L3956 6076
L3937 6114
L3919 6132
L3881 6151
L3844 6151
L3806 6132
L3787 6114
L3769 6076
L3750 6001
L3731 5964
L3712 5945
L3675 5926
L3637 5926
L3600 5945
L3581 5964
L3562 6001
L3562 6095
L3581 6151
" />
<path d="M3919 6545
L3937 6526
L3956 6470
L3956 6432
L3937 6376
L3900 6339
L3862 6320
L3787 6301
L3731 6301
L3656 6320
L3619 6339
L3581 6376
L3562 6432
L3562 6470
L3581 6526
L3600 6545
" />
<path d="M3956 6901
L3956 6714
L3562 6714
" />
<path d="M2956 5607
L2562 5607
L2844 5739
L2562 5870
L2956 5870
" />
<path d="M2562 6132
L2562 6207
L2581 6245
L2619 6282
L2694 6301
L2825 6301
L2900 6282
L2937 6245
L2956 6207
L2956 6132
L2937 6095
L2900 6057
L2825 6039
L2694 6039
L2619 6057
L2581 6095
L2562 6132
" />
<path d="M2937 6451
L2956 6507
L2956 6601
L2937 6639
L2919 6657
L2881 6676
L2844 6676
L2806 6657
L2787 6639
L2769 6601
L2750 6526
L2731 6489
L2712 6470
L2675 6451
L2637 6451
L2600 6470
L2581 6489
L2562 6526
L2562 6620
L2581 6676
" />
<path d="M2956 6845
L2562 6845
" />
<path d="M1562 5907
L1562 6151
L1712 6020
L1712 6076
L1731 6114
L1750 6132
L1787 6151
L1881 6151
L1919 6132
L1937 6114
L1956 6076
L1956 5964
L1937 5926
L1919 5907
" />
<path d="M1562 6264
L1956 6395
L1562 6526
" />
<path d="M1562 6620
L1562 6863
L1712 6732
L1712 6788
L1731 6826
L1750 6845
L1787 6863
L1881 6863
L1919 6845
L1937 6826
L1956 6788
L1956 6676
L1937 6639
L1919 6620
" />
<path d="M581 6039
L562 6001
L562 5945
L581 5889
L619 5851
L656 5832
L731 5814
L787 5814
L862 5832
L900 5851
L937 5889
L956 5945
L956 5982
L937 6039
L919 6057
L787 6057
L787 5982
" />
<path d="M956 6226
L562 6226
L956 6451
L562 6451
" />
<path d="M956 6639
L562 6639
L562 6732
L581 6788
L619 6826
L656 6845
L731 6863
L787 6863
L862 6845
L900 6826
L937 6788
L956 6732
L956 6639
" />
</g>
<g style="fill:#C2C200; fill-opacity:0.0; 
stroke:#C2C200; stroke-width:98.4252; stroke-opacity:1; 
stroke-linecap:round; stroke-linejoin:round;">
</g>
<g style="fill:#C2C200; fill-opacity:0.0; 
stroke:#C2C200; stroke-width:59.0551; stroke-opacity:1; 
stroke-linecap:round; stroke-linejoin:round;">
<path d="M6640 29
L6640 4316
" />
<path d="M1916 29
L1916 4316
" />
<path d="M1916 4316
L278 5954
" />
<path d="M6640 4316
L8278 5954
" />
<path d="M1916 29
L6640 29
" />
<path d="M8278 8029
L8278 5954
" />
<path d="M278 8029
L8278 8029
" />
<path d="M278 8029
L278 5954
" />
</g> 
</svg>
