G04 #@! TF.FileFunction,Legend,Bot*
%FSLAX46Y46*%
G04 Gerber Fmt 4.6, Leading zero omitted, Abs format (unit mm)*
G04 Created by KiCad (PCBNEW 4.0.7) date Wednesday, 02 May 2018 'AMt' 01:47:09 AM*
%MOMM*%
%LPD*%
G01*
G04 APERTURE LIST*
%ADD10C,0.100000*%
%ADD11C,0.250000*%
%ADD12C,0.300000*%
G04 APERTURE END LIST*
D10*
D11*
X110318571Y-89785714D02*
X110080476Y-90452381D01*
X109842380Y-89785714D01*
X108937618Y-90452381D02*
X109509047Y-90452381D01*
X109223333Y-90452381D02*
X109223333Y-89452381D01*
X109318571Y-89595238D01*
X109413809Y-89690476D01*
X109509047Y-89738095D01*
X108509047Y-90357143D02*
X108461428Y-90404762D01*
X108509047Y-90452381D01*
X108556666Y-90404762D01*
X108509047Y-90357143D01*
X108509047Y-90452381D01*
X107842381Y-89452381D02*
X107747142Y-89452381D01*
X107651904Y-89500000D01*
X107604285Y-89547619D01*
X107556666Y-89642857D01*
X107509047Y-89833333D01*
X107509047Y-90071429D01*
X107556666Y-90261905D01*
X107604285Y-90357143D01*
X107651904Y-90404762D01*
X107747142Y-90452381D01*
X107842381Y-90452381D01*
X107937619Y-90404762D01*
X107985238Y-90357143D01*
X108032857Y-90261905D01*
X108080476Y-90071429D01*
X108080476Y-89833333D01*
X108032857Y-89642857D01*
X107985238Y-89547619D01*
X107937619Y-89500000D01*
X107842381Y-89452381D01*
D12*
X112032856Y-85260714D02*
X112104285Y-85332143D01*
X112318571Y-85403571D01*
X112461428Y-85403571D01*
X112675713Y-85332143D01*
X112818571Y-85189286D01*
X112889999Y-85046429D01*
X112961428Y-84760714D01*
X112961428Y-84546429D01*
X112889999Y-84260714D01*
X112818571Y-84117857D01*
X112675713Y-83975000D01*
X112461428Y-83903571D01*
X112318571Y-83903571D01*
X112104285Y-83975000D01*
X112032856Y-84046429D01*
X110532856Y-85260714D02*
X110604285Y-85332143D01*
X110818571Y-85403571D01*
X110961428Y-85403571D01*
X111175713Y-85332143D01*
X111318571Y-85189286D01*
X111389999Y-85046429D01*
X111461428Y-84760714D01*
X111461428Y-84546429D01*
X111389999Y-84260714D01*
X111318571Y-84117857D01*
X111175713Y-83975000D01*
X110961428Y-83903571D01*
X110818571Y-83903571D01*
X110604285Y-83975000D01*
X110532856Y-84046429D01*
X109961428Y-84046429D02*
X109889999Y-83975000D01*
X109747142Y-83903571D01*
X109389999Y-83903571D01*
X109247142Y-83975000D01*
X109175713Y-84046429D01*
X109104285Y-84189286D01*
X109104285Y-84332143D01*
X109175713Y-84546429D01*
X110032856Y-85403571D01*
X109104285Y-85403571D01*
X107747142Y-83903571D02*
X108461428Y-83903571D01*
X108532857Y-84617857D01*
X108461428Y-84546429D01*
X108318571Y-84475000D01*
X107961428Y-84475000D01*
X107818571Y-84546429D01*
X107747142Y-84617857D01*
X107675714Y-84760714D01*
X107675714Y-85117857D01*
X107747142Y-85260714D01*
X107818571Y-85332143D01*
X107961428Y-85403571D01*
X108318571Y-85403571D01*
X108461428Y-85332143D01*
X108532857Y-85260714D01*
X106747143Y-83903571D02*
X106604286Y-83903571D01*
X106461429Y-83975000D01*
X106390000Y-84046429D01*
X106318571Y-84189286D01*
X106247143Y-84475000D01*
X106247143Y-84832143D01*
X106318571Y-85117857D01*
X106390000Y-85260714D01*
X106461429Y-85332143D01*
X106604286Y-85403571D01*
X106747143Y-85403571D01*
X106890000Y-85332143D01*
X106961429Y-85260714D01*
X107032857Y-85117857D01*
X107104286Y-84832143D01*
X107104286Y-84475000D01*
X107032857Y-84189286D01*
X106961429Y-84046429D01*
X106890000Y-83975000D01*
X106747143Y-83903571D01*
X105318572Y-83903571D02*
X105175715Y-83903571D01*
X105032858Y-83975000D01*
X104961429Y-84046429D01*
X104890000Y-84189286D01*
X104818572Y-84475000D01*
X104818572Y-84832143D01*
X104890000Y-85117857D01*
X104961429Y-85260714D01*
X105032858Y-85332143D01*
X105175715Y-85403571D01*
X105318572Y-85403571D01*
X105461429Y-85332143D01*
X105532858Y-85260714D01*
X105604286Y-85117857D01*
X105675715Y-84832143D01*
X105675715Y-84475000D01*
X105604286Y-84189286D01*
X105532858Y-84046429D01*
X105461429Y-83975000D01*
X105318572Y-83903571D01*
X112961428Y-87167857D02*
X112747142Y-87239286D01*
X112675714Y-87310714D01*
X112604285Y-87453571D01*
X112604285Y-87667857D01*
X112675714Y-87810714D01*
X112747142Y-87882143D01*
X112890000Y-87953571D01*
X113461428Y-87953571D01*
X113461428Y-86453571D01*
X112961428Y-86453571D01*
X112818571Y-86525000D01*
X112747142Y-86596429D01*
X112675714Y-86739286D01*
X112675714Y-86882143D01*
X112747142Y-87025000D01*
X112818571Y-87096429D01*
X112961428Y-87167857D01*
X113461428Y-87167857D01*
X111961428Y-87953571D02*
X111961428Y-86953571D01*
X111961428Y-87239286D02*
X111890000Y-87096429D01*
X111818571Y-87025000D01*
X111675714Y-86953571D01*
X111532857Y-86953571D01*
X110461429Y-87882143D02*
X110604286Y-87953571D01*
X110890000Y-87953571D01*
X111032857Y-87882143D01*
X111104286Y-87739286D01*
X111104286Y-87167857D01*
X111032857Y-87025000D01*
X110890000Y-86953571D01*
X110604286Y-86953571D01*
X110461429Y-87025000D01*
X110390000Y-87167857D01*
X110390000Y-87310714D01*
X111104286Y-87453571D01*
X109104286Y-87953571D02*
X109104286Y-87167857D01*
X109175715Y-87025000D01*
X109318572Y-86953571D01*
X109604286Y-86953571D01*
X109747143Y-87025000D01*
X109104286Y-87882143D02*
X109247143Y-87953571D01*
X109604286Y-87953571D01*
X109747143Y-87882143D01*
X109818572Y-87739286D01*
X109818572Y-87596429D01*
X109747143Y-87453571D01*
X109604286Y-87382143D01*
X109247143Y-87382143D01*
X109104286Y-87310714D01*
X108390000Y-87953571D02*
X108390000Y-86453571D01*
X108247143Y-87382143D02*
X107818572Y-87953571D01*
X107818572Y-86953571D02*
X108390000Y-87525000D01*
X106961428Y-87953571D02*
X107104286Y-87882143D01*
X107175714Y-87810714D01*
X107247143Y-87667857D01*
X107247143Y-87239286D01*
X107175714Y-87096429D01*
X107104286Y-87025000D01*
X106961428Y-86953571D01*
X106747143Y-86953571D01*
X106604286Y-87025000D01*
X106532857Y-87096429D01*
X106461428Y-87239286D01*
X106461428Y-87667857D01*
X106532857Y-87810714D01*
X106604286Y-87882143D01*
X106747143Y-87953571D01*
X106961428Y-87953571D01*
X105175714Y-86953571D02*
X105175714Y-87953571D01*
X105818571Y-86953571D02*
X105818571Y-87739286D01*
X105747143Y-87882143D01*
X105604285Y-87953571D01*
X105390000Y-87953571D01*
X105247143Y-87882143D01*
X105175714Y-87810714D01*
X104675714Y-86953571D02*
X104104285Y-86953571D01*
X104461428Y-86453571D02*
X104461428Y-87739286D01*
X104390000Y-87882143D01*
X104247142Y-87953571D01*
X104104285Y-87953571D01*
D11*
X118137143Y-97357143D02*
X118184762Y-97309524D01*
X118232381Y-97166667D01*
X118232381Y-97071429D01*
X118184762Y-96928571D01*
X118089524Y-96833333D01*
X117994286Y-96785714D01*
X117803810Y-96738095D01*
X117660952Y-96738095D01*
X117470476Y-96785714D01*
X117375238Y-96833333D01*
X117280000Y-96928571D01*
X117232381Y-97071429D01*
X117232381Y-97166667D01*
X117280000Y-97309524D01*
X117327619Y-97357143D01*
X118184762Y-97738095D02*
X118232381Y-97880952D01*
X118232381Y-98119048D01*
X118184762Y-98214286D01*
X118137143Y-98261905D01*
X118041905Y-98309524D01*
X117946667Y-98309524D01*
X117851429Y-98261905D01*
X117803810Y-98214286D01*
X117756190Y-98119048D01*
X117708571Y-97928571D01*
X117660952Y-97833333D01*
X117613333Y-97785714D01*
X117518095Y-97738095D01*
X117422857Y-97738095D01*
X117327619Y-97785714D01*
X117280000Y-97833333D01*
X117232381Y-97928571D01*
X117232381Y-98166667D01*
X117280000Y-98309524D01*
X115644762Y-94738095D02*
X115692381Y-94880952D01*
X115692381Y-95119048D01*
X115644762Y-95214286D01*
X115597143Y-95261905D01*
X115501905Y-95309524D01*
X115406667Y-95309524D01*
X115311429Y-95261905D01*
X115263810Y-95214286D01*
X115216190Y-95119048D01*
X115168571Y-94928571D01*
X115120952Y-94833333D01*
X115073333Y-94785714D01*
X114978095Y-94738095D01*
X114882857Y-94738095D01*
X114787619Y-94785714D01*
X114740000Y-94833333D01*
X114692381Y-94928571D01*
X114692381Y-95166667D01*
X114740000Y-95309524D01*
X115692381Y-95738095D02*
X114692381Y-95738095D01*
X114692381Y-95976190D01*
X114740000Y-96119048D01*
X114835238Y-96214286D01*
X114930476Y-96261905D01*
X115120952Y-96309524D01*
X115263810Y-96309524D01*
X115454286Y-96261905D01*
X115549524Y-96214286D01*
X115644762Y-96119048D01*
X115692381Y-95976190D01*
X115692381Y-95738095D01*
X114692381Y-96928571D02*
X114692381Y-97119048D01*
X114740000Y-97214286D01*
X114835238Y-97309524D01*
X115025714Y-97357143D01*
X115359048Y-97357143D01*
X115549524Y-97309524D01*
X115644762Y-97214286D01*
X115692381Y-97119048D01*
X115692381Y-96928571D01*
X115644762Y-96833333D01*
X115549524Y-96738095D01*
X115359048Y-96690476D01*
X115025714Y-96690476D01*
X114835238Y-96738095D01*
X114740000Y-96833333D01*
X114692381Y-96928571D01*
X114692381Y-97976190D02*
X114692381Y-98071429D01*
X114740000Y-98166667D01*
X114787619Y-98214286D01*
X114882857Y-98261905D01*
X115073333Y-98309524D01*
X115311429Y-98309524D01*
X115501905Y-98261905D01*
X115597143Y-98214286D01*
X115644762Y-98166667D01*
X115692381Y-98071429D01*
X115692381Y-97976190D01*
X115644762Y-97880952D01*
X115597143Y-97833333D01*
X115501905Y-97785714D01*
X115311429Y-97738095D01*
X115073333Y-97738095D01*
X114882857Y-97785714D01*
X114787619Y-97833333D01*
X114740000Y-97880952D01*
X114692381Y-97976190D01*
X113104762Y-94738095D02*
X113152381Y-94880952D01*
X113152381Y-95119048D01*
X113104762Y-95214286D01*
X113057143Y-95261905D01*
X112961905Y-95309524D01*
X112866667Y-95309524D01*
X112771429Y-95261905D01*
X112723810Y-95214286D01*
X112676190Y-95119048D01*
X112628571Y-94928571D01*
X112580952Y-94833333D01*
X112533333Y-94785714D01*
X112438095Y-94738095D01*
X112342857Y-94738095D01*
X112247619Y-94785714D01*
X112200000Y-94833333D01*
X112152381Y-94928571D01*
X112152381Y-95166667D01*
X112200000Y-95309524D01*
X113152381Y-95738095D02*
X112152381Y-95738095D01*
X112152381Y-95976190D01*
X112200000Y-96119048D01*
X112295238Y-96214286D01*
X112390476Y-96261905D01*
X112580952Y-96309524D01*
X112723810Y-96309524D01*
X112914286Y-96261905D01*
X113009524Y-96214286D01*
X113104762Y-96119048D01*
X113152381Y-95976190D01*
X113152381Y-95738095D01*
X112152381Y-96928571D02*
X112152381Y-97119048D01*
X112200000Y-97214286D01*
X112295238Y-97309524D01*
X112485714Y-97357143D01*
X112819048Y-97357143D01*
X113009524Y-97309524D01*
X113104762Y-97214286D01*
X113152381Y-97119048D01*
X113152381Y-96928571D01*
X113104762Y-96833333D01*
X113009524Y-96738095D01*
X112819048Y-96690476D01*
X112485714Y-96690476D01*
X112295238Y-96738095D01*
X112200000Y-96833333D01*
X112152381Y-96928571D01*
X112247619Y-97738095D02*
X112200000Y-97785714D01*
X112152381Y-97880952D01*
X112152381Y-98119048D01*
X112200000Y-98214286D01*
X112247619Y-98261905D01*
X112342857Y-98309524D01*
X112438095Y-98309524D01*
X112580952Y-98261905D01*
X113152381Y-97690476D01*
X113152381Y-98309524D01*
X110612381Y-95119048D02*
X109612381Y-95119048D01*
X110326667Y-95452382D01*
X109612381Y-95785715D01*
X110612381Y-95785715D01*
X110612381Y-96261905D02*
X109612381Y-96261905D01*
X110564762Y-96690476D02*
X110612381Y-96833333D01*
X110612381Y-97071429D01*
X110564762Y-97166667D01*
X110517143Y-97214286D01*
X110421905Y-97261905D01*
X110326667Y-97261905D01*
X110231429Y-97214286D01*
X110183810Y-97166667D01*
X110136190Y-97071429D01*
X110088571Y-96880952D01*
X110040952Y-96785714D01*
X109993333Y-96738095D01*
X109898095Y-96690476D01*
X109802857Y-96690476D01*
X109707619Y-96738095D01*
X109660000Y-96785714D01*
X109612381Y-96880952D01*
X109612381Y-97119048D01*
X109660000Y-97261905D01*
X109612381Y-97880952D02*
X109612381Y-98071429D01*
X109660000Y-98166667D01*
X109755238Y-98261905D01*
X109945714Y-98309524D01*
X110279048Y-98309524D01*
X110469524Y-98261905D01*
X110564762Y-98166667D01*
X110612381Y-98071429D01*
X110612381Y-97880952D01*
X110564762Y-97785714D01*
X110469524Y-97690476D01*
X110279048Y-97642857D01*
X109945714Y-97642857D01*
X109755238Y-97690476D01*
X109660000Y-97785714D01*
X109612381Y-97880952D01*
X108024762Y-95928571D02*
X108072381Y-96071428D01*
X108072381Y-96309524D01*
X108024762Y-96404762D01*
X107977143Y-96452381D01*
X107881905Y-96500000D01*
X107786667Y-96500000D01*
X107691429Y-96452381D01*
X107643810Y-96404762D01*
X107596190Y-96309524D01*
X107548571Y-96119047D01*
X107500952Y-96023809D01*
X107453333Y-95976190D01*
X107358095Y-95928571D01*
X107262857Y-95928571D01*
X107167619Y-95976190D01*
X107120000Y-96023809D01*
X107072381Y-96119047D01*
X107072381Y-96357143D01*
X107120000Y-96500000D01*
X107977143Y-97500000D02*
X108024762Y-97452381D01*
X108072381Y-97309524D01*
X108072381Y-97214286D01*
X108024762Y-97071428D01*
X107929524Y-96976190D01*
X107834286Y-96928571D01*
X107643810Y-96880952D01*
X107500952Y-96880952D01*
X107310476Y-96928571D01*
X107215238Y-96976190D01*
X107120000Y-97071428D01*
X107072381Y-97214286D01*
X107072381Y-97309524D01*
X107120000Y-97452381D01*
X107167619Y-97500000D01*
X108072381Y-98404762D02*
X108072381Y-97928571D01*
X107072381Y-97928571D01*
X105532381Y-95119048D02*
X104532381Y-95119048D01*
X105246667Y-95452382D01*
X104532381Y-95785715D01*
X105532381Y-95785715D01*
X104532381Y-96452381D02*
X104532381Y-96642858D01*
X104580000Y-96738096D01*
X104675238Y-96833334D01*
X104865714Y-96880953D01*
X105199048Y-96880953D01*
X105389524Y-96833334D01*
X105484762Y-96738096D01*
X105532381Y-96642858D01*
X105532381Y-96452381D01*
X105484762Y-96357143D01*
X105389524Y-96261905D01*
X105199048Y-96214286D01*
X104865714Y-96214286D01*
X104675238Y-96261905D01*
X104580000Y-96357143D01*
X104532381Y-96452381D01*
X105484762Y-97261905D02*
X105532381Y-97404762D01*
X105532381Y-97642858D01*
X105484762Y-97738096D01*
X105437143Y-97785715D01*
X105341905Y-97833334D01*
X105246667Y-97833334D01*
X105151429Y-97785715D01*
X105103810Y-97738096D01*
X105056190Y-97642858D01*
X105008571Y-97452381D01*
X104960952Y-97357143D01*
X104913333Y-97309524D01*
X104818095Y-97261905D01*
X104722857Y-97261905D01*
X104627619Y-97309524D01*
X104580000Y-97357143D01*
X104532381Y-97452381D01*
X104532381Y-97690477D01*
X104580000Y-97833334D01*
X105532381Y-98261905D02*
X104532381Y-98261905D01*
X101992381Y-95880952D02*
X101992381Y-96500000D01*
X102373333Y-96166666D01*
X102373333Y-96309524D01*
X102420952Y-96404762D01*
X102468571Y-96452381D01*
X102563810Y-96500000D01*
X102801905Y-96500000D01*
X102897143Y-96452381D01*
X102944762Y-96404762D01*
X102992381Y-96309524D01*
X102992381Y-96023809D01*
X102944762Y-95928571D01*
X102897143Y-95880952D01*
X101992381Y-96785714D02*
X102992381Y-97119047D01*
X101992381Y-97452381D01*
X101992381Y-97690476D02*
X101992381Y-98309524D01*
X102373333Y-97976190D01*
X102373333Y-98119048D01*
X102420952Y-98214286D01*
X102468571Y-98261905D01*
X102563810Y-98309524D01*
X102801905Y-98309524D01*
X102897143Y-98261905D01*
X102944762Y-98214286D01*
X102992381Y-98119048D01*
X102992381Y-97833333D01*
X102944762Y-97738095D01*
X102897143Y-97690476D01*
X99500000Y-96214286D02*
X99452381Y-96119048D01*
X99452381Y-95976191D01*
X99500000Y-95833333D01*
X99595238Y-95738095D01*
X99690476Y-95690476D01*
X99880952Y-95642857D01*
X100023810Y-95642857D01*
X100214286Y-95690476D01*
X100309524Y-95738095D01*
X100404762Y-95833333D01*
X100452381Y-95976191D01*
X100452381Y-96071429D01*
X100404762Y-96214286D01*
X100357143Y-96261905D01*
X100023810Y-96261905D01*
X100023810Y-96071429D01*
X100452381Y-96690476D02*
X99452381Y-96690476D01*
X100452381Y-97261905D01*
X99452381Y-97261905D01*
X100452381Y-97738095D02*
X99452381Y-97738095D01*
X99452381Y-97976190D01*
X99500000Y-98119048D01*
X99595238Y-98214286D01*
X99690476Y-98261905D01*
X99880952Y-98309524D01*
X100023810Y-98309524D01*
X100214286Y-98261905D01*
X100309524Y-98214286D01*
X100404762Y-98119048D01*
X100452381Y-97976190D01*
X100452381Y-97738095D01*
M02*
