G04 #@! TF.FileFunction,Legend,Top*
%FSLAX46Y46*%
G04 Gerber Fmt 4.6, Leading zero omitted, Abs format (unit mm)*
G04 Created by KiCad (PCBNEW 4.0.7) date Wednesday, 02 May 2018 'AMt' 01:47:09 AM*
%MOMM*%
%LPD*%
G01*
G04 APERTURE LIST*
%ADD10C,0.100000*%
%ADD11C,0.250000*%
G04 APERTURE END LIST*
D10*
D11*
X118137143Y-97690476D02*
X118184762Y-97738095D01*
X118232381Y-97880952D01*
X118232381Y-97976190D01*
X118184762Y-98119048D01*
X118089524Y-98214286D01*
X117994286Y-98261905D01*
X117803810Y-98309524D01*
X117660952Y-98309524D01*
X117470476Y-98261905D01*
X117375238Y-98214286D01*
X117280000Y-98119048D01*
X117232381Y-97976190D01*
X117232381Y-97880952D01*
X117280000Y-97738095D01*
X117327619Y-97690476D01*
X118184762Y-97309524D02*
X118232381Y-97166667D01*
X118232381Y-96928571D01*
X118184762Y-96833333D01*
X118137143Y-96785714D01*
X118041905Y-96738095D01*
X117946667Y-96738095D01*
X117851429Y-96785714D01*
X117803810Y-96833333D01*
X117756190Y-96928571D01*
X117708571Y-97119048D01*
X117660952Y-97214286D01*
X117613333Y-97261905D01*
X117518095Y-97309524D01*
X117422857Y-97309524D01*
X117327619Y-97261905D01*
X117280000Y-97214286D01*
X117232381Y-97119048D01*
X117232381Y-96880952D01*
X117280000Y-96738095D01*
X115644762Y-98309524D02*
X115692381Y-98166667D01*
X115692381Y-97928571D01*
X115644762Y-97833333D01*
X115597143Y-97785714D01*
X115501905Y-97738095D01*
X115406667Y-97738095D01*
X115311429Y-97785714D01*
X115263810Y-97833333D01*
X115216190Y-97928571D01*
X115168571Y-98119048D01*
X115120952Y-98214286D01*
X115073333Y-98261905D01*
X114978095Y-98309524D01*
X114882857Y-98309524D01*
X114787619Y-98261905D01*
X114740000Y-98214286D01*
X114692381Y-98119048D01*
X114692381Y-97880952D01*
X114740000Y-97738095D01*
X115692381Y-97309524D02*
X114692381Y-97309524D01*
X114692381Y-97071429D01*
X114740000Y-96928571D01*
X114835238Y-96833333D01*
X114930476Y-96785714D01*
X115120952Y-96738095D01*
X115263810Y-96738095D01*
X115454286Y-96785714D01*
X115549524Y-96833333D01*
X115644762Y-96928571D01*
X115692381Y-97071429D01*
X115692381Y-97309524D01*
X114692381Y-96119048D02*
X114692381Y-95928571D01*
X114740000Y-95833333D01*
X114835238Y-95738095D01*
X115025714Y-95690476D01*
X115359048Y-95690476D01*
X115549524Y-95738095D01*
X115644762Y-95833333D01*
X115692381Y-95928571D01*
X115692381Y-96119048D01*
X115644762Y-96214286D01*
X115549524Y-96309524D01*
X115359048Y-96357143D01*
X115025714Y-96357143D01*
X114835238Y-96309524D01*
X114740000Y-96214286D01*
X114692381Y-96119048D01*
X114692381Y-95071429D02*
X114692381Y-94976190D01*
X114740000Y-94880952D01*
X114787619Y-94833333D01*
X114882857Y-94785714D01*
X115073333Y-94738095D01*
X115311429Y-94738095D01*
X115501905Y-94785714D01*
X115597143Y-94833333D01*
X115644762Y-94880952D01*
X115692381Y-94976190D01*
X115692381Y-95071429D01*
X115644762Y-95166667D01*
X115597143Y-95214286D01*
X115501905Y-95261905D01*
X115311429Y-95309524D01*
X115073333Y-95309524D01*
X114882857Y-95261905D01*
X114787619Y-95214286D01*
X114740000Y-95166667D01*
X114692381Y-95071429D01*
X113104762Y-98309524D02*
X113152381Y-98166667D01*
X113152381Y-97928571D01*
X113104762Y-97833333D01*
X113057143Y-97785714D01*
X112961905Y-97738095D01*
X112866667Y-97738095D01*
X112771429Y-97785714D01*
X112723810Y-97833333D01*
X112676190Y-97928571D01*
X112628571Y-98119048D01*
X112580952Y-98214286D01*
X112533333Y-98261905D01*
X112438095Y-98309524D01*
X112342857Y-98309524D01*
X112247619Y-98261905D01*
X112200000Y-98214286D01*
X112152381Y-98119048D01*
X112152381Y-97880952D01*
X112200000Y-97738095D01*
X113152381Y-97309524D02*
X112152381Y-97309524D01*
X112152381Y-97071429D01*
X112200000Y-96928571D01*
X112295238Y-96833333D01*
X112390476Y-96785714D01*
X112580952Y-96738095D01*
X112723810Y-96738095D01*
X112914286Y-96785714D01*
X113009524Y-96833333D01*
X113104762Y-96928571D01*
X113152381Y-97071429D01*
X113152381Y-97309524D01*
X112152381Y-96119048D02*
X112152381Y-95928571D01*
X112200000Y-95833333D01*
X112295238Y-95738095D01*
X112485714Y-95690476D01*
X112819048Y-95690476D01*
X113009524Y-95738095D01*
X113104762Y-95833333D01*
X113152381Y-95928571D01*
X113152381Y-96119048D01*
X113104762Y-96214286D01*
X113009524Y-96309524D01*
X112819048Y-96357143D01*
X112485714Y-96357143D01*
X112295238Y-96309524D01*
X112200000Y-96214286D01*
X112152381Y-96119048D01*
X112247619Y-95309524D02*
X112200000Y-95261905D01*
X112152381Y-95166667D01*
X112152381Y-94928571D01*
X112200000Y-94833333D01*
X112247619Y-94785714D01*
X112342857Y-94738095D01*
X112438095Y-94738095D01*
X112580952Y-94785714D01*
X113152381Y-95357143D01*
X113152381Y-94738095D01*
X110612381Y-98261905D02*
X109612381Y-98261905D01*
X110326667Y-97928571D01*
X109612381Y-97595238D01*
X110612381Y-97595238D01*
X110612381Y-97119048D02*
X109612381Y-97119048D01*
X110564762Y-96690477D02*
X110612381Y-96547620D01*
X110612381Y-96309524D01*
X110564762Y-96214286D01*
X110517143Y-96166667D01*
X110421905Y-96119048D01*
X110326667Y-96119048D01*
X110231429Y-96166667D01*
X110183810Y-96214286D01*
X110136190Y-96309524D01*
X110088571Y-96500001D01*
X110040952Y-96595239D01*
X109993333Y-96642858D01*
X109898095Y-96690477D01*
X109802857Y-96690477D01*
X109707619Y-96642858D01*
X109660000Y-96595239D01*
X109612381Y-96500001D01*
X109612381Y-96261905D01*
X109660000Y-96119048D01*
X109612381Y-95500001D02*
X109612381Y-95309524D01*
X109660000Y-95214286D01*
X109755238Y-95119048D01*
X109945714Y-95071429D01*
X110279048Y-95071429D01*
X110469524Y-95119048D01*
X110564762Y-95214286D01*
X110612381Y-95309524D01*
X110612381Y-95500001D01*
X110564762Y-95595239D01*
X110469524Y-95690477D01*
X110279048Y-95738096D01*
X109945714Y-95738096D01*
X109755238Y-95690477D01*
X109660000Y-95595239D01*
X109612381Y-95500001D01*
X108024762Y-98309524D02*
X108072381Y-98166667D01*
X108072381Y-97928571D01*
X108024762Y-97833333D01*
X107977143Y-97785714D01*
X107881905Y-97738095D01*
X107786667Y-97738095D01*
X107691429Y-97785714D01*
X107643810Y-97833333D01*
X107596190Y-97928571D01*
X107548571Y-98119048D01*
X107500952Y-98214286D01*
X107453333Y-98261905D01*
X107358095Y-98309524D01*
X107262857Y-98309524D01*
X107167619Y-98261905D01*
X107120000Y-98214286D01*
X107072381Y-98119048D01*
X107072381Y-97880952D01*
X107120000Y-97738095D01*
X107977143Y-96738095D02*
X108024762Y-96785714D01*
X108072381Y-96928571D01*
X108072381Y-97023809D01*
X108024762Y-97166667D01*
X107929524Y-97261905D01*
X107834286Y-97309524D01*
X107643810Y-97357143D01*
X107500952Y-97357143D01*
X107310476Y-97309524D01*
X107215238Y-97261905D01*
X107120000Y-97166667D01*
X107072381Y-97023809D01*
X107072381Y-96928571D01*
X107120000Y-96785714D01*
X107167619Y-96738095D01*
X108072381Y-95833333D02*
X108072381Y-96309524D01*
X107072381Y-96309524D01*
X105532381Y-98261905D02*
X104532381Y-98261905D01*
X105246667Y-97928571D01*
X104532381Y-97595238D01*
X105532381Y-97595238D01*
X104532381Y-96928572D02*
X104532381Y-96738095D01*
X104580000Y-96642857D01*
X104675238Y-96547619D01*
X104865714Y-96500000D01*
X105199048Y-96500000D01*
X105389524Y-96547619D01*
X105484762Y-96642857D01*
X105532381Y-96738095D01*
X105532381Y-96928572D01*
X105484762Y-97023810D01*
X105389524Y-97119048D01*
X105199048Y-97166667D01*
X104865714Y-97166667D01*
X104675238Y-97119048D01*
X104580000Y-97023810D01*
X104532381Y-96928572D01*
X105484762Y-96119048D02*
X105532381Y-95976191D01*
X105532381Y-95738095D01*
X105484762Y-95642857D01*
X105437143Y-95595238D01*
X105341905Y-95547619D01*
X105246667Y-95547619D01*
X105151429Y-95595238D01*
X105103810Y-95642857D01*
X105056190Y-95738095D01*
X105008571Y-95928572D01*
X104960952Y-96023810D01*
X104913333Y-96071429D01*
X104818095Y-96119048D01*
X104722857Y-96119048D01*
X104627619Y-96071429D01*
X104580000Y-96023810D01*
X104532381Y-95928572D01*
X104532381Y-95690476D01*
X104580000Y-95547619D01*
X105532381Y-95119048D02*
X104532381Y-95119048D01*
X101992381Y-98357143D02*
X101992381Y-97738095D01*
X102373333Y-98071429D01*
X102373333Y-97928571D01*
X102420952Y-97833333D01*
X102468571Y-97785714D01*
X102563810Y-97738095D01*
X102801905Y-97738095D01*
X102897143Y-97785714D01*
X102944762Y-97833333D01*
X102992381Y-97928571D01*
X102992381Y-98214286D01*
X102944762Y-98309524D01*
X102897143Y-98357143D01*
X101992381Y-97452381D02*
X102992381Y-97119048D01*
X101992381Y-96785714D01*
X101992381Y-96547619D02*
X101992381Y-95928571D01*
X102373333Y-96261905D01*
X102373333Y-96119047D01*
X102420952Y-96023809D01*
X102468571Y-95976190D01*
X102563810Y-95928571D01*
X102801905Y-95928571D01*
X102897143Y-95976190D01*
X102944762Y-96023809D01*
X102992381Y-96119047D01*
X102992381Y-96404762D01*
X102944762Y-96500000D01*
X102897143Y-96547619D01*
X99500000Y-97738095D02*
X99452381Y-97833333D01*
X99452381Y-97976190D01*
X99500000Y-98119048D01*
X99595238Y-98214286D01*
X99690476Y-98261905D01*
X99880952Y-98309524D01*
X100023810Y-98309524D01*
X100214286Y-98261905D01*
X100309524Y-98214286D01*
X100404762Y-98119048D01*
X100452381Y-97976190D01*
X100452381Y-97880952D01*
X100404762Y-97738095D01*
X100357143Y-97690476D01*
X100023810Y-97690476D01*
X100023810Y-97880952D01*
X100452381Y-97261905D02*
X99452381Y-97261905D01*
X100452381Y-96690476D01*
X99452381Y-96690476D01*
X100452381Y-96214286D02*
X99452381Y-96214286D01*
X99452381Y-95976191D01*
X99500000Y-95833333D01*
X99595238Y-95738095D01*
X99690476Y-95690476D01*
X99880952Y-95642857D01*
X100023810Y-95642857D01*
X100214286Y-95690476D01*
X100309524Y-95738095D01*
X100404762Y-95833333D01*
X100452381Y-95976191D01*
X100452381Y-96214286D01*
M02*
